<svg width="1024" height="1024" viewBox="0 0 1024 1024" fill="none" xmlns="http://www.w3.org/2000/svg">
<g clip-path="url(#clip0_385_45)">
<path d="M1014.64 822.633C1014.64 822.633 1014.64 822.633 1014.62 822.633L703.993 512.003L1014.62 201.373C1014.62 201.373 1014.62 201.373 1014.64 201.373C1017.98 198.035 1020.4 194.123 1021.95 189.966C1026.19 178.6 1023.78 165.289 1014.62 156.134L867.888 9.40023C858.734 0.245989 845.443 -2.17057 834.057 2.08912C829.899 3.64555 825.988 6.0621 822.629 9.40023L511.999 320.05L201.37 9.42071C198.032 6.08258 194.12 3.66603 189.963 2.1096C178.576 -2.12961 165.285 0.286946 156.131 9.42071L9.39695 156.155C0.242713 165.309 -2.17384 178.6 2.06537 189.987C3.62179 194.144 6.03835 198.055 9.37647 201.393L320.006 512.023L9.37647 822.673C6.03835 826.012 3.6218 829.923 2.06537 834.08C-2.17384 845.446 0.242713 858.758 9.39695 867.912L156.131 1014.65C165.285 1023.8 178.576 1026.22 189.963 1021.98C194.12 1020.42 198.032 1018 201.37 1014.67L511.999 704.037L822.629 1014.67C822.629 1014.67 822.629 1014.67 822.65 1014.67C825.988 1018 829.899 1020.42 834.057 1021.98C845.443 1026.22 858.734 1023.8 867.888 1014.65L1014.62 867.912C1023.78 858.758 1026.19 845.467 1021.95 834.08C1020.4 829.923 1017.98 826.012 1014.64 822.673V822.633Z" fill="url(#paint0_diamond_385_45)"/>
</g>
<defs>
<radialGradient id="paint0_diamond_385_45" cx="0" cy="0" r="1" gradientUnits="userSpaceOnUse" gradientTransform="translate(511.781 495.53) rotate(90) scale(468.172 468.445)">
<stop stop-color="#5CC1F7"/>
<stop offset="0.5" stop-color="#274757"/>
<stop offset="0.765" stop-color="#5CC1F7"/>
<stop offset="1" stop-color="#274757"/>
</radialGradient>
<clipPath id="clip0_385_45">
<rect width="1024" height="1024" fill="white"/>
</clipPath>
</defs>
</svg>
