<svg width="893" height="900" viewBox="0 0 893 900" fill="none" xmlns="http://www.w3.org/2000/svg">
<path d="M675.747 900H513.965V727.315C513.965 714.654 503.766 704.455 491.105 704.455H409.159C396.498 704.455 386.298 714.83 386.298 727.315V900H211.504C163.321 900 124.106 860.785 124.106 812.603V527.374L25.4543 496.6L17.541 488.687C-5.84701 465.299 -5.84701 427.491 17.541 404.103L404.059 17.585C415.314 6.3306 430.261 0 446.263 0C462.266 0 477.213 6.15475 488.467 17.585L874.985 404.279C886.24 415.533 892.57 430.657 892.395 446.483C892.395 462.485 886.064 477.433 874.81 488.687L866.896 496.6L762.793 527.55V812.603C762.969 860.785 723.93 900 675.747 900Z" fill="url(#paint0_diamond_385_21)"/>
<defs>
<radialGradient id="paint0_diamond_385_21" cx="0" cy="0" r="1" gradientUnits="userSpaceOnUse" gradientTransform="translate(446 435.5) rotate(90) scale(411.5 408.269)">
<stop stop-color="#5CC1F7"/>
<stop offset="0.5" stop-color="#274757"/>
<stop offset="0.765" stop-color="#5CC1F7"/>
<stop offset="1" stop-color="#274757"/>
</radialGradient>
</defs>
</svg>
