<svg width="1024" height="1024" viewBox="0 0 1024 1024" fill="none" xmlns="http://www.w3.org/2000/svg">
<path d="M856.66 52H167.34C103.64 52 52 103.68 52 167.43V856.57C52 920.32 103.64 972 167.34 972H856.67C920.36 972 972 920.32 972 856.57V167.05C971.78 103.45 920.21 52 856.66 52ZM180.02 459.4V208.26C180.08 200.83 183.16 193.74 188.55 188.63C190.943 185.884 193.91 183.697 197.242 182.225C200.574 180.752 204.188 180.03 207.83 180.11H456.96C467.59 178.88 477.99 183.85 483.69 192.9C489.39 201.95 489.39 213.47 483.69 222.51C480.892 226.944 476.899 230.497 472.17 232.76C467.44 235.023 462.168 235.903 456.96 235.3H274.93L462.89 423.1L423.59 462.36L235.26 274.19V459.4C235.863 464.606 234.98 469.876 232.716 474.603C230.451 479.329 226.895 483.318 222.46 486.11C213.41 491.81 201.88 491.81 192.82 486.11C188.382 483.321 184.825 479.332 182.56 474.605C180.295 469.878 179.414 464.606 180.02 459.4ZM486.3 831.18C483.507 835.615 479.518 839.169 474.792 841.434C470.066 843.699 464.796 844.581 459.59 843.98H208.45C204.773 843.95 201.139 843.18 197.766 841.714C194.393 840.249 191.351 838.118 188.82 835.45C186.074 833.057 183.887 830.09 182.415 826.758C180.942 823.426 180.22 819.812 180.3 816.17V567.05C179.07 556.42 184.04 546.02 193.09 540.32C202.14 534.62 213.66 534.62 222.7 540.32C227.134 543.118 230.687 547.111 232.95 551.84C235.213 556.57 236.093 561.842 235.49 567.05V749.07L423.29 561.11L462.55 600.41L274.38 788.74H459.59C464.796 788.137 470.066 789.02 474.793 791.284C479.519 793.549 483.508 797.105 486.3 801.54C492 810.6 492 822.13 486.3 831.18ZM564.41 179.64H812.59C820.02 179.7 827.1 182.78 832.22 188.17C837.92 192.94 841.18 200.01 841.11 207.45V456.58H844.08C842.45 470.6 830.59 481.18 816.48 481.18C802.37 481.18 790.51 470.6 788.89 456.58V274.55L600.72 462.5L561.46 423.21L749.63 234.88H564.41C550.4 233.25 539.83 221.38 539.83 207.26C539.84 193.14 550.41 181.27 564.41 179.64ZM844.36 812.4C844.329 816.077 843.558 819.711 842.093 823.083C840.627 826.456 838.497 829.499 835.83 832.03C833.474 834.845 830.522 837.103 827.188 838.64C823.854 840.177 820.221 840.956 816.55 840.92H567.43V843.89C553.41 842.26 542.83 830.4 542.83 816.29C542.83 802.18 553.41 790.32 567.43 788.7H749.46L561.5 600.52L600.79 561.26L789.12 749.43V564.22C790.75 550.21 802.62 539.64 816.74 539.64C830.86 539.64 842.74 550.21 844.36 564.22V812.4Z" fill="url(#paint0_diamond_385_44)"/>
<defs>
<radialGradient id="paint0_diamond_385_44" cx="0" cy="0" r="1" gradientUnits="userSpaceOnUse" gradientTransform="translate(511.795 497.178) rotate(90) scale(420.644 420.896)">
<stop stop-color="#5CC1F7"/>
<stop offset="0.5" stop-color="#274757"/>
<stop offset="0.765" stop-color="#5CC1F7"/>
<stop offset="1" stop-color="#274757"/>
</radialGradient>
</defs>
</svg>
