<svg width="883" height="900" viewBox="0 0 883 900" fill="none" xmlns="http://www.w3.org/2000/svg">
<path d="M701.555 130.674H65.285C29.2228 130.674 0 160 0 195.959V701.14C0 737.202 29.3264 766.425 65.285 766.425H701.555C737.617 766.425 766.84 667.047 766.84 631.088V196.062C766.943 160 737.617 130.674 701.555 130.674ZM729.638 631.088L701.658 729.12H65.285L37.3057 701.14V337.409L272.539 426.529V516.684C272.539 541.762 292.85 562.073 317.928 562.073H449.016C474.094 562.073 494.404 541.762 494.404 516.684V426.321L729.638 336.684V631.088ZM309.845 516.684V385.596C309.845 381.14 313.472 377.513 317.928 377.513H449.016C453.472 377.513 457.099 381.14 457.099 385.596V516.684C457.099 521.14 453.472 524.767 449.016 524.767H317.928C313.472 524.767 309.845 521.14 309.845 516.684ZM581.658 102.487C571.399 102.487 563.005 94.0933 563.005 83.8343V65.285C563.005 49.8446 550.467 37.3057 535.026 37.3057H231.814C216.373 37.3057 203.834 49.8446 203.834 65.285V83.8343C203.834 94.0933 195.441 102.487 185.181 102.487C174.922 102.487 166.529 94.0933 166.529 83.8343V65.285C166.529 29.2228 195.855 0 231.814 0H535.026C571.088 0 600.311 29.3264 600.311 65.285V83.8343C600.311 94.197 592.021 102.487 581.658 102.487Z" fill="url(#paint0_diamond_385_17)"/>
<ellipse cx="684.456" cy="709.327" rx="142.487" ry="140.415" fill="#D9D9D9"/>
<path d="M881.268 864.571L800.941 786.104C807.179 777.239 812.432 767.828 816.59 757.869C837.602 705.886 825.455 646.352 785.838 606.626C772.377 593.603 756.618 583.097 739.437 575.874C722.693 569.089 704.745 565.697 686.688 565.806C668.412 565.697 650.355 569.089 633.282 575.874C615.991 583.097 600.232 593.603 586.881 606.626C573.748 619.978 563.352 635.737 556.129 653.028C542.777 686.735 542.777 724.162 556.129 757.869C563.352 775.16 573.748 790.919 586.881 804.271C600.342 817.294 616.101 827.8 633.282 835.022C650.245 841.808 668.412 845.2 686.688 845.091C704.745 845.2 722.693 841.808 739.437 835.022C748.958 830.645 758.151 825.611 767.015 819.92L847.342 899.591C847.342 899.7 891.883 906.047 881.268 864.571ZM760.996 772.205C760.449 772.643 760.011 773.081 759.464 773.628C741.188 792.342 716.017 802.738 689.752 802.52C635.143 806.897 587.318 766.186 583.05 711.577C578.673 656.968 619.384 609.143 673.993 604.875C679.246 604.438 684.499 604.438 689.752 604.875C715.908 604.547 741.078 615.053 759.464 633.767C798.095 671.632 798.752 733.574 760.996 772.205Z" fill="white"/>
<path d="M868.653 860.106L792.59 785.806C798.497 777.412 803.471 768.5 807.409 759.07C827.305 709.847 815.803 653.474 778.29 615.857C765.544 603.526 750.621 593.578 734.352 586.738C718.497 580.313 701.502 577.101 684.404 577.205C667.098 577.101 650 580.313 633.834 586.738C617.461 593.578 602.538 603.526 589.896 615.857C577.461 628.5 567.616 643.422 560.777 659.795C548.134 691.712 548.134 727.153 560.777 759.07C567.616 775.443 577.461 790.365 589.896 803.008C602.642 815.339 617.564 825.288 633.834 832.127C649.896 838.552 667.098 841.764 684.404 841.661C701.502 841.764 718.497 838.552 734.352 832.127C743.368 827.982 752.072 823.215 760.466 817.826L836.528 893.267C836.528 893.371 878.704 899.381 868.653 860.106ZM754.767 772.645C754.248 773.06 753.834 773.474 753.316 773.992C736.01 791.713 712.176 801.557 687.305 801.35C635.595 805.495 590.31 766.946 586.269 715.236C582.124 663.526 620.673 618.241 672.383 614.199C677.357 613.785 682.331 613.785 687.305 614.199C712.072 613.889 735.906 623.837 753.316 641.557C789.896 677.412 790.518 736.065 754.767 772.645Z" fill="url(#paint1_diamond_385_17)"/>
<defs>
<radialGradient id="paint0_diamond_385_17" cx="0" cy="0" r="1" gradientUnits="userSpaceOnUse" gradientTransform="translate(383.249 370.865) rotate(90) scale(350.427 350.826)">
<stop stop-color="#5CC1F7"/>
<stop offset="0.5" stop-color="#274757"/>
<stop offset="0.765" stop-color="#5CC1F7"/>
<stop offset="1" stop-color="#274757"/>
</radialGradient>
<radialGradient id="paint1_diamond_385_17" cx="0" cy="0" r="1" gradientUnits="userSpaceOnUse" gradientTransform="translate(710.677 730.33) rotate(90) scale(144.689 145.898)">
<stop stop-color="#5CC1F7"/>
<stop offset="0.5" stop-color="#274757"/>
<stop offset="0.765" stop-color="#5CC1F7"/>
<stop offset="1" stop-color="#274757"/>
</radialGradient>
</defs>
</svg>
