<svg width="1053" height="1053" viewBox="0 0 1053 1053" fill="none" xmlns="http://www.w3.org/2000/svg">
<line x1="116" y1="524" x2="928" y2="524" stroke="#B5B5B5" stroke-opacity="0.996078" stroke-width="40"/>
<line x1="805.428" y1="268.822" x2="198.381" y2="818.77" stroke="#B5B5B5" stroke-opacity="0.996078" stroke-width="40"/>
<line x1="207.42" y1="237.171" x2="849.42" y2="818.171" stroke="#B5B5B5" stroke-opacity="0.996078" stroke-width="40"/>
<line x1="529" y1="148.948" x2="531.013" y2="919.948" stroke="#B5B5B5" stroke-opacity="0.996078" stroke-width="40"/>
<circle cx="526.5" cy="526.5" r="429.5" stroke="url(#paint0_linear_373_44)" stroke-width="194"/>
<circle cx="526" cy="526" r="431" stroke="black" stroke-width="22"/>
<path d="M636 516.812C636 576.847 587.035 625.623 526.5 625.623C465.965 625.623 417 576.847 417 516.812C417 456.776 465.965 408 526.5 408C587.035 408 636 456.776 636 516.812Z" fill="#D9D9D9"/>
<path d="M636 516.812C636 576.847 587.035 625.623 526.5 625.623C465.965 625.623 417 576.847 417 516.812C417 456.776 465.965 408 526.5 408C587.035 408 636 456.776 636 516.812Z" fill="url(#paint1_radial_373_44)"/>
<path d="M636 516.812C636 576.847 587.035 625.623 526.5 625.623C465.965 625.623 417 576.847 417 516.812C417 456.776 465.965 408 526.5 408C587.035 408 636 456.776 636 516.812Z" stroke="black" stroke-width="22"/>
<circle cx="526" cy="98" r="87" fill="url(#paint2_radial_373_44)" stroke="black" stroke-width="22"/>
<circle cx="526" cy="954" r="87" fill="url(#paint3_radial_373_44)" stroke="black" stroke-width="22"/>
<circle cx="98" cy="526" r="87" fill="url(#paint4_radial_373_44)" stroke="black" stroke-width="22"/>
<circle cx="954" cy="526" r="87" fill="url(#paint5_radial_373_44)" stroke="black" stroke-width="22"/>
<circle cx="843" cy="239" r="87" fill="url(#paint6_radial_373_44)" stroke="black" stroke-width="22"/>
<circle cx="209" cy="239" r="87" fill="url(#paint7_radial_373_44)" stroke="black" stroke-width="22"/>
<circle cx="209" cy="812" r="87" fill="url(#paint8_radial_373_44)" stroke="black" stroke-width="22"/>
<circle cx="843" cy="812" r="87" fill="url(#paint9_radial_373_44)" stroke="black" stroke-width="22"/>
<defs>
<linearGradient id="paint0_linear_373_44" x1="628.114" y1="691.821" x2="1011.93" y2="1070.37" gradientUnits="userSpaceOnUse">
<stop stop-color="#B6B6B6"/>
<stop offset="1" stop-color="#999999"/>
</linearGradient>
<radialGradient id="paint1_radial_373_44" cx="0" cy="0" r="1" gradientUnits="userSpaceOnUse" gradientTransform="translate(526.5 485.195) rotate(79.0676) scale(127.958 128.64)">
<stop stop-color="white"/>
<stop offset="0.6" stop-color="#38B3F5"/>
<stop offset="0.775" stop-color="#274757"/>
<stop offset="1" stop-color="#5CC1F7"/>
</radialGradient>
<radialGradient id="paint2_radial_373_44" cx="0" cy="0" r="1" gradientUnits="userSpaceOnUse" gradientTransform="translate(526 72.1389) rotate(79.1285) scale(104.642)">
<stop stop-color="white"/>
<stop offset="0.6" stop-color="#38B3F5"/>
<stop offset="0.775" stop-color="#274757"/>
<stop offset="1" stop-color="#5CC1F7"/>
</radialGradient>
<radialGradient id="paint3_radial_373_44" cx="0" cy="0" r="1" gradientUnits="userSpaceOnUse" gradientTransform="translate(526 928.139) rotate(79.1285) scale(104.642)">
<stop stop-color="white"/>
<stop offset="0.6" stop-color="#38B3F5"/>
<stop offset="0.775" stop-color="#274757"/>
<stop offset="1" stop-color="#5CC1F7"/>
</radialGradient>
<radialGradient id="paint4_radial_373_44" cx="0" cy="0" r="1" gradientUnits="userSpaceOnUse" gradientTransform="translate(98 500.139) rotate(79.1285) scale(104.642)">
<stop stop-color="white"/>
<stop offset="0.6" stop-color="#38B3F5"/>
<stop offset="0.775" stop-color="#274757"/>
<stop offset="1" stop-color="#5CC1F7"/>
</radialGradient>
<radialGradient id="paint5_radial_373_44" cx="0" cy="0" r="1" gradientUnits="userSpaceOnUse" gradientTransform="translate(954 500.139) rotate(79.1285) scale(104.642)">
<stop stop-color="white"/>
<stop offset="0.6" stop-color="#38B3F5"/>
<stop offset="0.775" stop-color="#274757"/>
<stop offset="1" stop-color="#5CC1F7"/>
</radialGradient>
<radialGradient id="paint6_radial_373_44" cx="0" cy="0" r="1" gradientUnits="userSpaceOnUse" gradientTransform="translate(843 213.139) rotate(79.1285) scale(104.642)">
<stop stop-color="white"/>
<stop offset="0.6" stop-color="#38B3F5"/>
<stop offset="0.775" stop-color="#274757"/>
<stop offset="1" stop-color="#5CC1F7"/>
</radialGradient>
<radialGradient id="paint7_radial_373_44" cx="0" cy="0" r="1" gradientUnits="userSpaceOnUse" gradientTransform="translate(209 213.139) rotate(79.1285) scale(104.642)">
<stop stop-color="white"/>
<stop offset="0.6" stop-color="#38B3F5"/>
<stop offset="0.775" stop-color="#274757"/>
<stop offset="1" stop-color="#5CC1F7"/>
</radialGradient>
<radialGradient id="paint8_radial_373_44" cx="0" cy="0" r="1" gradientUnits="userSpaceOnUse" gradientTransform="translate(209 786.139) rotate(79.1285) scale(104.642)">
<stop stop-color="white"/>
<stop offset="0.6" stop-color="#38B3F5"/>
<stop offset="0.775" stop-color="#274757"/>
<stop offset="1" stop-color="#5CC1F7"/>
</radialGradient>
<radialGradient id="paint9_radial_373_44" cx="0" cy="0" r="1" gradientUnits="userSpaceOnUse" gradientTransform="translate(843 786.139) rotate(79.1285) scale(104.642)">
<stop stop-color="white"/>
<stop offset="0.6" stop-color="#38B3F5"/>
<stop offset="0.775" stop-color="#274757"/>
<stop offset="1" stop-color="#5CC1F7"/>
</radialGradient>
</defs>
</svg>
