<svg width="1024" height="1024" viewBox="0 0 1024 1024" fill="none" xmlns="http://www.w3.org/2000/svg">
<path d="M413.537 955.077V896C413.537 880.246 399.752 866.462 383.998 866.462H187.075C171.321 866.462 157.537 852.677 157.537 836.923V187.077C157.537 171.323 171.321 157.539 187.075 157.539H383.998C399.752 157.539 413.537 143.754 413.537 128V68.9232C413.537 53.1694 399.752 39.3848 383.998 39.3848H118.152C74.829 39.3848 39.3828 74.8309 39.3828 118.154V905.846C39.3828 949.169 74.829 984.615 118.152 984.615H383.998C399.752 984.615 413.537 970.831 413.537 955.077ZM976.737 531.692C988.552 519.877 988.552 502.154 976.737 490.339L710.891 224.492C699.075 212.677 681.352 212.677 669.537 224.492L628.183 265.846C616.367 277.662 616.367 295.385 628.183 307.2L738.46 417.477C750.275 429.292 742.398 450.954 724.675 450.954H305.229C289.475 450.954 275.691 462.769 275.691 478.523V537.6C275.691 553.354 289.475 569.108 305.229 569.108H722.706C740.429 569.108 748.306 590.769 736.49 602.585L626.214 712.862C614.398 724.677 614.398 742.4 626.214 754.216L667.567 795.569C679.383 807.385 697.106 807.385 708.921 795.569L976.737 531.692Z" fill="url(#paint0_diamond_385_47)"/>
<defs>
<radialGradient id="paint0_diamond_385_47" cx="0" cy="0" r="1" gradientUnits="userSpaceOnUse" gradientTransform="translate(512.279 496.771) rotate(90) scale(432.18 432.89)">
<stop stop-color="#5CC1F7"/>
<stop offset="0.5" stop-color="#274757"/>
<stop offset="0.765" stop-color="#5CC1F7"/>
<stop offset="1" stop-color="#274757"/>
</radialGradient>
</defs>
</svg>
