<svg width="157" height="125" viewBox="0 0 157 125" fill="none" xmlns="http://www.w3.org/2000/svg">
<ellipse cx="102.495" cy="79.7721" rx="35.3281" ry="9.5" transform="rotate(38.7229 102.495 79.7721)" fill="url(#paint0_linear_359_16)"/>
<path d="M122.521 98.6738C119.281 102.715 108.054 96.406 94.1553 85.2618C80.2566 74.1177 71.616 61.8078 74.856 57.7669C78.096 53.726 91.9898 59.4843 105.889 70.6284C119.787 81.7725 125.761 94.6329 122.521 98.6738Z" fill="url(#paint1_linear_359_16)"/>
<path d="M52.2732 16.0443C47.6518 13.1846 42.1515 12.0943 36.7886 12.9747C31.4258 13.8552 26.5628 16.647 23.0983 20.8342C19.6339 25.0215 17.802 30.3211 17.9413 35.754C18.0805 41.1869 20.1815 46.3858 23.8559 50.39C23.8559 50.39 22.8319 32.3724 30.1483 24.6868C37.8948 16.5496 52.2732 16.0443 52.2732 16.0443Z" fill="url(#paint2_linear_359_16)"/>
<path d="M57.2177 10.2011C57.2177 10.2011 67.0438 14.4072 70.8744 18.1343C74.7051 21.8614 77.5575 26.4757 79.1789 31.5684C80.8003 36.6612 81.1407 42.0753 80.17 47.331C79.1992 52.5868 76.9473 57.522 73.6136 61.6996C70.2799 65.8771 65.9674 69.1681 61.0581 71.2808C56.1488 73.3936 50.7942 74.2631 45.4686 73.8122C40.143 73.3612 35.0108 71.6039 30.5266 68.6957C26.0424 65.7876 19.7608 57.1398 19.7608 57.1398C19.7608 57.1398 28.5757 60.6849 34.5939 62.4937C37.7664 63.4472 37.708 63.2795 42.415 63.5857C47.1221 63.8918 50.2449 62.8226 54.1675 60.6235C58.3435 58.2824 60.2579 57.1559 63.0164 53.243C65.6406 49.5206 66.9821 47.1097 67.8857 42.6458C68.6461 38.8897 68.3927 36.6386 67.9434 32.8328C67.389 28.1374 66.6733 25.4677 64.7145 21.1646C62.5657 16.4439 57.2177 10.2011 57.2177 10.2011Z" fill="url(#paint3_linear_359_16)"/>
<path d="M57.2175 10.2042C57.2175 10.2042 67.0435 14.4103 70.8742 18.1374C74.7049 21.8645 76.0221 24.4124 77.1787 30.5715C78.3353 36.7307 76.9257 43.3176 73.1697 48.3341C67.3666 56.085 54.1672 60.6266 54.1672 60.6266C54.1672 60.6266 60.2576 57.159 63.0161 53.2461C65.6403 49.5237 66.9819 47.1128 67.8855 42.6489C68.6458 38.8928 68.3925 36.6417 67.9431 32.8359C67.3887 28.1405 66.673 25.4708 64.7142 21.1677C62.5654 16.447 57.2175 10.2042 57.2175 10.2042Z" fill="url(#paint4_linear_359_16)"/>
<defs>
<linearGradient id="paint0_linear_359_16" x1="91.8501" y1="57.1084" x2="128.869" y2="85.7457" gradientUnits="userSpaceOnUse">
<stop stop-color="#844DBC"/>
<stop offset="0.65" stop-color="#BB2DB6"/>
<stop offset="1" stop-color="#2E81C5"/>
</linearGradient>
<linearGradient id="paint1_linear_359_16" x1="74.856" y1="57.7669" x2="125.188" y2="98.1233" gradientUnits="userSpaceOnUse">
<stop stop-color="#7E51BC"/>
<stop offset="1" stop-color="#C825B4"/>
</linearGradient>
<linearGradient id="paint2_linear_359_16" x1="22.5842" y1="35.504" x2="41.793" y2="12.61" gradientUnits="userSpaceOnUse">
<stop stop-color="#3080C5"/>
<stop offset="1" stop-color="#A43AB8"/>
</linearGradient>
<linearGradient id="paint3_linear_359_16" x1="37.5337" y1="72.6053" x2="68.7746" y2="49.2546" gradientUnits="userSpaceOnUse">
<stop stop-color="#3080C5"/>
<stop offset="1" stop-color="#A43AB8"/>
</linearGradient>
<linearGradient id="paint4_linear_359_16" x1="58.8666" y1="62.085" x2="66.8666" y2="21.585" gradientUnits="userSpaceOnUse">
<stop stop-color="#F2B343"/>
<stop offset="0.565" stop-color="#FF3827"/>
<stop offset="1" stop-color="#F2B343"/>
</linearGradient>
</defs>
</svg>
