<svg width="982" height="900" viewBox="0 0 982 900" fill="none" xmlns="http://www.w3.org/2000/svg">
<path d="M736.324 0H245.455C110.384 0 0 110.463 0 245.455V409.091C0 544.069 110.384 654.545 245.455 654.545H286.323V900L566.814 654.545H736.324C871.315 654.545 981.779 544.069 981.779 409.091V245.455C981.779 110.463 871.315 0 736.324 0ZM245.415 409.091C200.232 409.091 163.596 372.43 163.596 327.272C163.596 282.101 200.231 245.454 245.415 245.454C290.558 245.454 327.233 282.099 327.233 327.272C327.232 372.43 290.558 409.091 245.415 409.091ZM490.869 409.091C445.687 409.091 409.051 372.43 409.051 327.272C409.051 282.101 445.685 245.454 490.869 245.454C536.054 245.454 572.688 282.099 572.688 327.272C572.687 372.43 536.054 409.091 490.869 409.091ZM736.324 409.091C691.1 409.091 654.505 372.43 654.505 327.272C654.505 282.101 691.099 245.454 736.324 245.454C781.468 245.454 818.143 282.099 818.143 327.272C818.141 372.43 781.468 409.091 736.324 409.091Z" fill="url(#paint0_diamond_385_19)"/>
<defs>
<radialGradient id="paint0_diamond_385_19" cx="0" cy="0" r="1" gradientUnits="userSpaceOnUse" gradientTransform="translate(490.67 435.5) rotate(90) scale(411.5 449.16)">
<stop stop-color="#5CC1F7"/>
<stop offset="0.5" stop-color="#274757"/>
<stop offset="0.765" stop-color="#5CC1F7"/>
<stop offset="1" stop-color="#274757"/>
</radialGradient>
</defs>
</svg>
