<svg width="1047" height="900" viewBox="0 0 1047 900" fill="none" xmlns="http://www.w3.org/2000/svg">
<path fill-rule="evenodd" clip-rule="evenodd" d="M752.646 206.421C752.646 320.424 648.172 412.842 519.299 412.842C390.427 412.842 285.953 320.424 285.953 206.421C285.953 92.4177 390.427 0 519.299 0C648.172 0 752.646 92.4177 752.646 206.421ZM1.09696 820.967C-6.85745 862.329 29.4709 900 76.9064 900H969.353C1016.79 900 1053.12 862.329 1045.16 820.967C1007.68 625.956 833.964 471.984 613.662 438.413C617.511 441.149 618.479 446.425 614.899 450.131L564.22 502.598C560.437 506.514 558.956 511.774 560.224 516.802L608.846 709.741C610.083 714.644 608.706 719.779 605.11 723.67L537.485 796.855C530.078 804.87 516.224 804.87 508.816 796.855L441.189 723.67C437.596 719.779 436.218 714.644 437.453 709.741L486.023 517.012C487.319 511.868 485.738 506.484 481.772 502.55L428.609 449.792C425.334 446.543 425.66 441.999 428.427 439.064C210.106 473.931 38.3431 627.188 1.09696 820.967Z" fill="url(#paint0_diamond_385_22)"/>
<defs>
<radialGradient id="paint0_diamond_385_22" cx="0" cy="0" r="1" gradientUnits="userSpaceOnUse" gradientTransform="translate(522.896 435.5) rotate(90) scale(411.5 478.659)">
<stop stop-color="#5CC1F7"/>
<stop offset="0.5" stop-color="#274757"/>
<stop offset="0.765" stop-color="#5CC1F7"/>
<stop offset="1" stop-color="#274757"/>
</radialGradient>
</defs>
</svg>
