<svg width="773" height="900" viewBox="0 0 773 900" fill="none" xmlns="http://www.w3.org/2000/svg">
<path d="M386.095 900C389.714 900 393.333 899.81 396.952 899.619C400.571 899.429 404.19 899.048 407.81 898.476C411.429 897.905 414.857 897.333 418.476 896.571C422.095 895.809 425.524 895.048 428.952 894.095C432.381 893.143 435.81 892 439.238 890.857C442.667 889.714 446.095 888.381 449.333 886.857C452.571 885.524 456 884 459.048 882.286C462.095 880.571 465.333 878.857 468.571 877.143C471.619 875.238 474.667 873.333 477.714 871.238C480.762 869.143 483.619 867.048 486.476 864.762C489.333 862.476 492 860.19 494.667 857.714C497.333 855.238 500 852.762 502.476 850.095C504.952 847.429 507.429 844.762 509.714 842.095C512 839.238 514.286 836.571 516.381 833.524C518.476 830.667 520.571 827.619 522.476 824.571C524.381 821.524 526.286 818.476 528 815.238C528.19 814.857 528.381 814.667 528.381 814.286C528.571 813.905 528.571 813.714 528.762 813.333C528.762 812.952 528.952 812.571 528.952 812.381V811.429C528.952 811.048 528.952 810.667 528.762 810.476C528.762 810.095 528.571 809.714 528.571 809.524C528.381 809.143 528.381 808.952 528.19 808.571C528 808.19 527.81 808 527.81 807.619C527.81 807.238 527.429 807.048 527.238 806.857C527.048 806.667 526.857 806.286 526.476 806.095C526.286 805.905 525.905 805.714 525.714 805.333C525.524 805.143 525.143 804.952 524.762 804.762C524.381 804.571 524.19 804.381 523.81 804.381C523.429 804.19 523.238 804.19 522.857 804C522.476 804 522.095 803.81 521.905 803.81H250.667C250.286 803.81 249.905 804 249.714 804C249.333 804 249.143 804.19 248.762 804.381C248.381 804.571 248.19 804.571 247.81 804.762C247.429 804.952 247.238 805.143 246.857 805.333C246.667 805.524 246.286 805.714 246.095 806.095L245.333 806.857C245.143 807.048 244.952 807.429 244.762 807.619C244.571 808 244.381 808.19 244.191 808.571C244 808.952 244 809.143 243.81 809.524C243.619 809.905 243.619 810.286 243.619 810.476C243.619 810.857 243.619 811.238 243.429 811.429V812.381C243.429 812.762 243.429 813.143 243.619 813.333C243.619 813.714 243.81 813.905 244 814.286C244.19 814.667 244.19 814.857 244.381 815.238C246.095 818.476 247.81 821.524 249.905 824.571C251.81 827.619 253.905 830.667 256 833.524C258.095 836.381 260.381 839.238 262.667 842.095C264.952 844.952 267.429 847.619 269.905 850.095C272.381 852.762 275.048 855.238 277.714 857.714C280.381 860.19 283.048 862.476 285.905 864.762C288.762 867.048 291.619 869.143 294.667 871.238C297.714 873.333 300.571 875.238 303.81 877.143C307.048 879.048 310.095 880.762 313.333 882.286C316.571 884 319.81 885.524 323.048 886.857C326.286 888.19 329.714 889.524 333.143 890.857C336.571 892 340 893.143 343.429 894.095C346.857 895.048 350.476 895.809 353.905 896.571C357.524 897.333 360.952 897.905 364.571 898.476C368.19 899.048 371.81 899.238 375.238 899.619C378.667 900 382.476 900 386.095 900ZM755.81 621.524C752.381 617.524 749.143 613.524 745.905 609.524C701.714 556 675.048 523.81 675.048 372.381C675.048 294.095 656.381 229.714 619.429 181.524C592.19 145.905 555.429 118.857 506.857 98.8571C506.286 98.4762 505.714 98.0952 505.143 97.5238C487.619 39.0476 440 0 386.095 0C332.191 0 284.381 39.2381 267.048 97.5238C266.667 98.0952 266.095 98.4762 265.333 98.8571C152 145.524 96.9524 235.048 96.9524 372.381C96.9524 523.81 70.2857 556 26.0952 609.524C22.8572 613.333 19.619 617.333 16.1905 621.524C14.0952 624.19 12.1905 626.857 10.2857 629.714C8.57143 632.571 7.04762 635.619 5.71429 638.667C4.38095 641.714 3.2381 644.952 2.4762 648.19C1.52382 651.429 0.952387 654.667 0.571434 658.095C0.190482 661.333 0 664.762 0 668.19C0 671.619 0.380952 674.857 0.952381 678.286C1.52381 681.714 2.28572 684.762 3.2381 688C4.19048 691.238 5.52381 694.286 6.85715 697.333C19.2381 723.429 45.7143 739.619 75.8095 739.619H696.381C726.476 739.619 752.571 723.429 765.143 697.524C766.667 694.476 767.81 691.429 768.762 688.19C769.714 684.952 770.476 681.714 771.048 678.476C771.619 675.238 771.81 671.81 772 668.381C772.19 664.952 771.81 661.714 771.429 658.286C771.048 654.857 770.286 651.619 769.524 648.381C768.571 645.143 767.619 641.905 766.286 638.857C764.952 635.81 763.429 632.762 761.714 629.905C760 626.857 758.095 624 755.81 621.524Z" fill="url(#paint0_diamond_384_10)"/>
<defs>
<radialGradient id="paint0_diamond_384_10" cx="0" cy="0" r="1" gradientUnits="userSpaceOnUse" gradientTransform="translate(385.853 435.5) rotate(90) scale(411.5 353.21)">
<stop stop-color="#5CC1F7"/>
<stop offset="0.5" stop-color="#274757"/>
<stop offset="0.765" stop-color="#5CC1F7"/>
<stop offset="1" stop-color="#274757"/>
</radialGradient>
</defs>
</svg>
