<svg width="1006" height="862" viewBox="0 0 1006 862" fill="none" xmlns="http://www.w3.org/2000/svg">
<path d="M502.416 0C-61.1818 0 -7.48529 319.744 9.69948 357.913C36.4382 408.922 97.7881 414.962 129.737 357.913C191.556 242.95 327.961 96.0328 502.416 96.0328C676.924 96.0328 804.999 231.793 879.092 359.035C891.214 386.251 957.995 415.724 993.44 357.913C1013.45 330.363 1072.34 0.815104 502.416 0Z" fill="url(#paint0_diamond_385_36)"/>
<path d="M501.53 136.849C266.598 136.849 76.1484 506.575 76.1484 691.888C76.1484 861.675 149.127 861.327 501.53 861.327C853.909 861.327 926.89 861.673 926.89 691.888C926.89 506.575 736.446 136.849 501.53 136.849ZM500.287 604.09C400.484 604.09 319.568 517.298 319.568 410.204C319.568 303.122 400.484 216.312 500.287 216.312C600.109 216.312 681.019 303.12 681.019 410.204C681.019 517.296 600.109 604.09 500.287 604.09Z" fill="url(#paint1_diamond_385_36)"/>
<defs>
<radialGradient id="paint0_diamond_385_36" cx="0" cy="0" r="1" gradientUnits="userSpaceOnUse" gradientTransform="translate(502.444 192.813) rotate(90) scale(182.188 459.938)">
<stop stop-color="#5CC1F7"/>
<stop offset="0.5" stop-color="#274757"/>
<stop offset="0.765" stop-color="#5CC1F7"/>
<stop offset="1" stop-color="#274757"/>
</radialGradient>
<radialGradient id="paint1_diamond_385_36" cx="0" cy="0" r="1" gradientUnits="userSpaceOnUse" gradientTransform="translate(501.329 487.416) rotate(90) scale(331.247 389.211)">
<stop stop-color="#5CC1F7"/>
<stop offset="0.5" stop-color="#274757"/>
<stop offset="0.765" stop-color="#5CC1F7"/>
<stop offset="1" stop-color="#274757"/>
</radialGradient>
</defs>
</svg>
