<svg width="1024" height="1024" viewBox="0 0 1024 1024" fill="none" xmlns="http://www.w3.org/2000/svg">
<path d="M946.222 844.994L727.729 624.668C725.186 622.119 722.376 620.172 719.693 618.051C756.601 560.948 778.152 492.93 778.152 419.664C778.152 218.382 616.362 55.2363 416.654 55.2363C217.058 55.2363 55.1562 218.382 55.1562 419.664C55.1562 620.974 217.058 784.084 416.654 784.084C489.302 784.084 556.85 762.3 613.58 725.085C615.646 727.853 617.541 730.606 620.043 733.135L838.564 953.488C853.483 968.485 872.914 975.96 892.373 975.96C911.845 975.96 931.289 968.486 946.195 953.524C975.879 923.528 975.879 874.967 946.222 844.994ZM416.654 669.007C280.307 669.007 169.32 557.135 169.32 419.664C169.32 282.214 280.308 170.313 416.654 170.313C553 170.313 663.988 282.214 663.988 419.664C663.989 557.134 553 669.007 416.654 669.007Z" fill="url(#paint0_diamond_385_46)"/>
<defs>
<radialGradient id="paint0_diamond_385_46" cx="0" cy="0" r="1" gradientUnits="userSpaceOnUse" gradientTransform="translate(511.605 500.764) rotate(90) scale(420.975 417.833)">
<stop stop-color="#5CC1F7"/>
<stop offset="0.5" stop-color="#274757"/>
<stop offset="0.765" stop-color="#5CC1F7"/>
<stop offset="1" stop-color="#274757"/>
</radialGradient>
</defs>
</svg>
