<svg width="854" height="854" viewBox="0 0 854 854" fill="none" xmlns="http://www.w3.org/2000/svg">
<path d="M362.844 426.667C362.844 443.64 369.587 459.919 381.589 471.921C393.591 483.924 409.87 490.667 426.844 490.667C443.818 490.667 460.096 483.924 472.099 471.921C484.101 459.919 490.844 443.64 490.844 426.667C490.844 409.693 484.101 393.414 472.099 381.412C460.096 369.409 443.818 362.667 426.844 362.667C409.87 362.667 393.591 369.409 381.589 381.412C369.587 393.414 362.844 409.693 362.844 426.667Z" fill="url(#paint0_diamond_385_35)"/>
<path d="M848.819 354.987L815.112 247.467C811.473 235.04 805.368 223.474 797.162 213.458C788.955 203.442 778.816 195.181 767.348 189.169C755.88 183.156 743.319 179.515 730.414 178.462C717.508 177.409 704.523 178.966 692.232 183.04L677.725 187.733C666.361 191.49 654.256 192.443 642.444 190.511C630.631 188.58 619.461 183.821 609.885 176.64L605.192 173.227C595.847 166.075 588.314 156.827 583.201 146.228C578.087 135.63 575.535 123.979 575.752 112.213V100.267C575.959 73.4731 565.524 47.6924 546.739 28.5867C537.803 19.5606 527.172 12.3888 515.457 7.48301C503.742 2.57725 491.173 0.034227 478.472 0H369.672C343.567 0.337334 318.653 10.9735 300.353 29.5929C282.054 48.2122 271.851 73.3069 271.965 99.4133V109.653C271.924 122.038 269.105 134.256 263.714 145.406C258.323 156.557 250.499 166.355 240.819 174.08L235.272 178.347C224.577 186.437 212.068 191.793 198.833 193.95C185.597 196.106 172.035 194.997 159.325 190.72C147.652 186.681 135.281 185.052 122.96 185.932C110.64 186.812 98.6256 190.182 87.6452 195.84C76.2129 201.514 66.0705 209.48 57.8494 219.243C49.6283 229.005 43.5043 240.355 39.8586 252.587L4.8719 363.52C-3.2415 388.531 -1.16081 415.733 10.6621 439.219C22.4851 462.705 43.0958 480.579 68.0186 488.96H74.8452C86.3421 493.268 96.661 500.227 104.964 509.272C113.267 518.316 119.32 529.191 122.632 541.013L125.192 547.84C129.948 560.902 131.539 574.905 129.833 588.701C128.127 602.496 123.173 615.69 115.379 627.2C99.6011 648.686 92.9462 675.534 96.8614 701.902C100.777 728.27 114.945 752.025 136.285 768L224.605 834.987C241.329 847.146 261.53 853.58 282.205 853.333C287.739 853.875 293.312 853.875 298.845 853.333C311.65 850.855 323.815 845.793 334.598 838.458C345.382 831.122 354.557 821.666 361.565 810.667L371.379 796.587C378.262 786.712 387.371 778.594 397.969 772.887C408.568 767.181 420.359 764.045 432.392 763.733C445.002 763.423 457.486 766.312 468.677 772.132C479.869 777.952 489.404 786.512 496.392 797.013L501.512 804.267C508.787 815.093 518.2 824.316 529.174 831.367C540.147 838.418 552.447 843.149 565.318 845.267C578.188 847.385 591.356 846.847 604.01 843.685C616.664 840.523 628.538 834.804 638.899 826.88L725.512 762.027C745.991 746.122 759.609 722.985 763.576 697.361C767.543 671.737 761.557 645.566 746.845 624.213L735.752 608C729.081 597.693 724.713 586.068 722.946 573.918C721.178 561.768 722.054 549.38 725.512 537.6C729.037 524.989 735.579 513.427 744.574 503.912C753.569 494.396 764.746 487.214 777.139 482.987L785.672 480C810.364 471.432 830.756 453.599 842.54 430.27C854.324 406.942 856.575 379.945 848.819 354.987ZM426.845 576C397.31 576 368.438 567.242 343.88 550.833C319.322 534.424 300.182 511.101 288.879 483.814C277.577 456.527 274.619 426.501 280.381 397.533C286.143 368.565 300.366 341.957 321.251 321.072C342.135 300.187 368.744 285.965 397.712 280.203C426.68 274.441 456.706 277.398 483.993 288.701C511.28 300.003 534.602 319.144 551.011 343.702C567.42 368.259 576.179 397.131 576.179 426.667C576.179 446.277 572.316 465.696 564.811 483.814C557.307 501.932 546.307 518.394 532.44 532.261C518.573 546.128 502.111 557.128 483.993 564.633C465.875 572.137 446.456 576 426.845 576Z" fill="url(#paint1_diamond_385_35)"/>
<defs>
<radialGradient id="paint0_diamond_385_35" cx="0" cy="0" r="1" gradientUnits="userSpaceOnUse" gradientTransform="translate(426.815 424.604) rotate(90) scale(58.5244 58.5595)">
<stop stop-color="#5CC1F7"/>
<stop offset="0.5" stop-color="#274757"/>
<stop offset="0.765" stop-color="#5CC1F7"/>
<stop offset="1" stop-color="#274757"/>
</radialGradient>
<radialGradient id="paint1_diamond_385_35" cx="0" cy="0" r="1" gradientUnits="userSpaceOnUse" gradientTransform="translate(426.487 413.115) rotate(90) scale(390.349 390.407)">
<stop stop-color="#5CC1F7"/>
<stop offset="0.5" stop-color="#274757"/>
<stop offset="0.765" stop-color="#5CC1F7"/>
<stop offset="1" stop-color="#274757"/>
</radialGradient>
</defs>
</svg>
