<svg width="960" height="1024" viewBox="0 0 960 1024" fill="none" xmlns="http://www.w3.org/2000/svg">
<path d="M864 0H96C43.2 0 0 43.2 0 96V928C0 980.8 43.2 1024 96 1024H864C916.8 1024 960 980.8 960 928V96C960 43.2 916.8 0 864 0ZM832 896H128V128H832V896ZM256 576H704V640H256V576ZM256 704H704V768H256V704ZM320 288C320 234.976 362.976 192 416 192C469.024 192 512 234.976 512 288C512 341.024 469.024 384 416 384C362.976 384 320 341.024 320 288ZM480 384H352C299.2 384 256 412.8 256 448V512H576V448C576 412.8 532.8 384 480 384Z" fill="url(#paint0_diamond_385_34)"/>
<defs>
<radialGradient id="paint0_diamond_385_34" cx="0" cy="0" r="1" gradientUnits="userSpaceOnUse" gradientTransform="translate(479.786 495.502) rotate(90) scale(468.196 439.196)">
<stop stop-color="#5CC1F7"/>
<stop offset="0.5" stop-color="#274757"/>
<stop offset="0.765" stop-color="#5CC1F7"/>
<stop offset="1" stop-color="#274757"/>
</radialGradient>
</defs>
</svg>
