<svg width="1020" height="1024" viewBox="0 0 1020 1024" fill="none" xmlns="http://www.w3.org/2000/svg">
<path d="M0 1024L72.0213 761.067C27.5259 683.936 4.15537 596.437 4.26667 507.392C4.37333 227.605 232.085 0 511.851 0C647.637 0.064 775.061 52.9067 870.891 148.8C918.159 195.844 955.626 251.797 981.124 313.419C1006.62 375.041 1019.64 441.109 1019.43 507.797C1019.31 787.563 791.595 1015.21 511.851 1015.21H511.637C426.688 1015.17 343.211 993.877 269.077 953.451L0 1024Z" fill="url(#paint0_diamond_385_37)"/>
<path d="M384.98 295.254C374.698 270.55 364.244 273.899 356.458 273.494C349.055 273.131 340.607 273.067 332.138 273.067C323.668 273.067 309.951 276.224 298.324 288.918C286.698 301.611 253.951 332.288 253.951 394.688C253.951 457.11 299.391 517.398 305.727 525.846C312.063 534.315 395.156 662.379 522.388 717.291C552.639 730.347 576.255 738.155 594.687 744C625.066 753.643 652.714 752.299 674.559 749.035C698.922 745.387 749.588 718.358 760.17 688.747C770.73 659.115 770.73 633.728 767.573 628.438C764.394 623.168 755.946 619.99 743.253 613.632C730.581 607.296 668.223 576.619 656.596 572.395C644.97 568.15 636.522 566.038 628.052 578.731C619.604 591.424 595.306 619.99 587.903 628.438C580.5 636.907 573.098 637.974 560.426 631.638C547.733 625.28 506.879 611.883 458.452 568.704C420.735 535.083 395.285 493.547 387.882 480.854C380.479 468.16 387.092 461.312 393.428 454.976C399.146 449.302 406.122 440.171 412.458 432.79C418.815 425.366 420.927 420.075 425.151 411.627C429.375 403.158 427.263 395.755 424.085 389.398C420.927 383.062 395.562 320.662 384.98 295.275V295.254Z" fill="white"/>
<defs>
<radialGradient id="paint0_diamond_385_37" cx="0" cy="0" r="1" gradientUnits="userSpaceOnUse" gradientTransform="translate(509.491 495.502) rotate(90) scale(468.196 466.388)">
<stop stop-color="#5CC1F7"/>
<stop offset="0.5" stop-color="#274757"/>
<stop offset="0.765" stop-color="#5CC1F7"/>
<stop offset="1" stop-color="#274757"/>
</radialGradient>
</defs>
</svg>
